<svg width="480" height="480" viewBox="0 0 480 480" fill="none" xmlns="http://www.w3.org/2000/svg">
<g clip-path="url(#clip0_101_2)">
<path d="M431.118 0H48.8819C21.8981 0.0267595 0.0304718 19.2303 0 42.9268V437.073C0.0304718 460.77 21.8981 479.973 48.8819 480H431.118C458.103 479.973 479.97 460.77 480 437.073V42.9268C479.97 19.2312 458.103 0.0267595 431.118 0Z" fill="#E6E6E6"/>
<path d="M48.8819 12.3575C29.6653 12.3763 14.0932 26.0522 14.0719 42.9267V437.073C14.0932 453.948 29.6653 467.624 48.8819 467.642H431.119C450.335 467.624 465.908 453.948 465.928 437.073V42.9267C465.908 26.0522 450.335 12.3763 431.119 12.3584H48.8819V12.3575Z" fill="white"/>
<path d="M90 341V86H165.001L240 179.751L315.001 86.0018H390V341.002H315.001V194.75L240 288.501L165.001 194.752V341H90Z" fill="#71717A"/>
<rect x="90" y="367" width="300" height="28" fill="#FB923C"/>
</g>
<defs>
<clipPath id="clip0_101_2">
<rect width="480" height="480" fill="white"/>
</clipPath>
</defs>
</svg>
